<?xml version="1.0" encoding="utf-8"?>
<svg viewBox="0 0 272.03 265.122" style="shape-rendering: geometricprecision;" xmlns="http://www.w3.org/2000/svg">
] <defs>
    <linearGradient id="grad1" x1="0%" x2="100%" y1="0%" y2="0%">
      <stop offset="0%" stop-color="#F18336" />
      <stop offset="100%" stop-color="#D12B2D" />
    </linearGradient>
  </defs>
  <g id="Слой_x0020_1" transform="matrix(0.019197000190615654, 0, 0, 0.019197000190615654, -63.69722461249273, -153.43557967894637)" style="" fill="url(#grad1)" >
    <path class="fil0 str0" d="M12720.08 12246.32c686.14-83.97 1190.83-509.1 1514.07-1275.39 166.45-482.34 234.71-913.5 204.79-1293.48-82.42-440.35-280.03-756.53-592.83-948.56-500.22-320.11-1125.4-463.83-1875.55-431.16-584.29 26.66-1284.63 311.08-2101.03 853.28-339.72 235.25-682.28 490.4-1027.67 765.45-149.07 132.74-432.56 291.02-850.49 474.85-114.73 45.93-211.59 29.4-290.58-49.61-89.18-125.63-117.53-286.28-85.05-481.94 34.08-194.52 81.33-414.22 141.75-659.13 47.53-156.58 47.53-291.24 0-403.99-66.91-174.74-229.91-252.7-489.03-233.87-410.39 58.94-819.1 278.64-1226.12 659.12-340.54 281.94-687.82 688.28-1041.85 1219.03-380.83 576.4-683.22 1133.95-907.19 1672.63-214.01 550.54-351.03 1020.67-411.06 1410.39-128.24 1100.37-71.54 1988.66 170.1 2664.86 215.35 530.78 437.43 788.29 666.21 772.52 231.13 49.85 538.25-106.07 921.36-467.77 163.49-181.89 293.42-335.45 389.8-460.68 140.14-213.26 300.8-329.02 481.95-347.28 154.84-4.5 249.34 87.64 283.5 276.41 6.85 192.89 42.29 355.9 106.3 489.03 113.97 186.74 308.31 253.77 583.02 201.12 249.46-88.33 473.14-63.48 671.06 74.56 207.78 174.62 338.27 413.84 391.45 717.66 33.48 404.42-90.8 718.19-372.81 941.34-200.4 172.48-372.82 223.74-517.28 153.79-90.95-40.03-137.55-123.92-139.79-251.65-6.62-303.52-59.43-530.3-158.45-680.37-148.47-219.79-313.13-376.68-493.97-470.68-255.89-127.83-544.81-151.12-866.78-69.89-342.91 127.51-591.45 349.64-745.61 666.39-182.98 373.33-232.69 786.52-149.13 1239.59 144.95 596.14 410.57 1015.55 796.87 1258.23 405.01 227.98 844.61 318.08 1318.81 270.28 576.34-79.41 1130.37-407.82 1662.08-985.26 855.77-1115.08 1268.73-2476.23 1238.89-4083.45-28.71-288.04-137.21-447-325.51-476.86-222.63-39.76-461.07-22.14-715.34 52.86-134.33 40.02-298.77 132.81-493.32 278.38-128.21 94.74-282.07 144.07-461.61 148-145.75 8.27-236.19-53.98-271.33-186.76-37.95-161.72 38.41-314.42 229.04-458.09 208.64-159.53 502.3-265.25 880.95-317.14 559.07-92.31 1054.33-278.1 1485.79-557.37 466.79-355.86 735.77-715.28 806.95-1078.28 28.26-265.68-5.81-452.44-102.19-560.28-156.57-176.53-429.08-229.4-817.52-158.57-692.97 159.49-1245.04 431.99-1656.18 817.52-909.14 768.19-1363.71 1152.28-1363.71 1152.28-289.78 253.05-598.69 416.32-926.75 489.81-261.25 86.16-449.18 46.23-563.81-119.81-116.97-200.15-178.06-500.85-183.24-902.09 20.01-639.48 178.87-1230.6 476.58-1773.36 227.4-415.12 427.32-631.24 599.75-648.37 174.72-44.66 290.89 24.23 348.5 206.67 41.56 125.54 69.93 252.51 85.11 380.92 26.2 334.63 124.81 548.06 295.82 640.27 283.38 162.98 642.69 195.4 1077.93 97.26 402.1-104.61 880.28-439.61 1434.53-1004.99 451.41-473.5 758.03-767.97 919.89-883.41 236.81-164.7 452.93-272.76 648.38-324.19 220-66.22 394.25-25.7 522.76 121.57 94.75 106.16 142.03 272.31 141.83 498.44l-30.66 508.84c-32.98 264.54 9.31 466.57 126.86 606.09 167.79 197.45 378.04 285.55 630.76 264.29z" />
    <path class="fil0 str0" d="M12884.8 15815.5c198.66-910.42 111-1581.98-262.99-2014.67-304.25-261.9-632.96-345.86-986.14-251.9-438.81 130.68-788.95 455.82-1050.44 975.42-147.64 390.1-192.31 934.98-133.99 1634.61 2.74 623.09-127.28 1256.44-390.06 1900.07-413.22 679.82-631.94 1320.36-656.15 1921.61-11.99 546.8 128.61 928 421.82 1143.59 504.21 384.26 1254.1 415.51 2249.68 93.74 1103.54-473.47 1840.94-1157.75 2212.19-2052.84 367.06-812.07 417.06-1436.98 149.98-1874.74-198.3-337.5-457.64-506.22-778.02-506.18-344.56-5.75-648.38 141.82-911.47 442.69-162.41 186.57-328.81 511.18-499.23 973.82-101.22 330.79-294.33 589.65-579.36 776.58-181.91 108.52-327.78 83.87-437.6-73.96-109.16-199.93-107.11-436.19 6.16-708.78 160.82-325.16 395.03-651.82 702.63-979.98 521.01-448.2 835.34-914.56 942.99-1399.08z"/>
    <path class="fil0 str0" d="M16874.62 13200.37c193.15-951.42-12.1-1613.12-615.75-1985.12-339.57-189.78-743.48-226.25-1211.72-109.42-403.25 131.77-770.68 392.48-1102.3 782.16-323.34 368.96-504.35 918.75-543.05 1649.39-16.8 636.81 45.77 1275.87 187.7 1917.19 57.81 261.33 201.62 474.99 431.44 641 340.93 190.66 562.81 406.38 665.65 647.17 108.51 228.07 180.41 497.21 215.73 807.42 44.22 348.12 218.85 561.78 523.9 641.01 389.9 69.94 796.69-100.58 1220.37-511.57 460.21-526.18 675.93-1074.74 647.16-1645.66-46.11-576.73-247.46-876.69-604.01-899.87-281.56-26.1-493.17 29.37-634.85 166.41-84.4 90.42-185.35 179.3-302.84 266.63-110.15 81.01-216.86 75.6-320.16-16.22-61.91-61.29-114.59-155.85-158.05-283.68-47.79-166.19-147.75-313.43-299.9-441.74-190.43-245.74-257.98-592.92-202.63-1041.52 80.26-466.71 242.37-736.89 486.31-810.52 168.44-63.05 249.49-31.98 243.17 93.21-12.31 75.46-21.77 152.46-28.38 230.99-25.97 249.32 34.82 439.79 182.38 571.42 193.76 165.18 399.08 208.4 615.99 129.69 311.84-158.37 513.11-424.49 603.84-798.37z"/>
  </g>
</svg>